PathFileType	4	(X/Y/Z)	C:/Users/beibeiliu/ov580/test_trc/User2\sequence.32_training_dense_left.trc
DataRate	CameraRate	NumFrames	NumMarkers	Units	OrigDataRate	OrigDataStartFrame	OrigNumFrames
120	120	24	19	mm	120	289	330
Frame#	Time	ThumbCMC			ThumbMCP			ThumbIP			ThumbTip			IndexMCP			IndexPIP			IndexTip			MiddleMCP			MiddlePIP			MiddleTip			RingMCP			RingPIP			RingTip			PinkyMCP			PinkyPIP			PinkyTip			BackHand1			BackHand2			BackHand3	
		X0	Y0	Z0	X1	Y1	Z1	X2	Y2	Z2	X3	Y3	Z3	X4	Y4	Z4	X5	Y5	Z5	X6	Y6	Z6	X7	Y7	Z7	X8	Y8	Z8	X9	Y9	Z9	X10	Y10	Z10	X11	Y11	Z11	X12	Y12	Z12	X13	Y13	Z13	X14	Y14	Z14	X15	Y15	Z15	X16	Y16	Z16	X17	Y17	Z17	X18	Y18	Z18	
288	2.4	-160.421	54.7271	101.281	-138.628	63.3676	70.5195	-127.153	79.7802	40.4658	-134.937	88.4266	17.304	-183.493	133.878	87.382	-170.969	155.505	66.1545	-158.401	144.765	34.8278	-214.685	133.719	72.4447	-206.547	150.539	41.7509	-180.653	131.058	15.5591	-217.519	112.087	43.8432	-194.85	106.916	23.061	-182.109	77.1414	38.2383	-221.789	85.9489	34.3395	-192.524	69.3671	26.5277	-187.858	54.3339	55.7099	-231.554	71.4106	94.6569	-228.316	42.3408	111.748	-199.902	70.3687	118.149	
289	2.40833	-158.399	50.588	98.1796	-139.253	58.6278	65.8379	-127.957	74.9525	33.9304	-132.846	84.4162	9.28099	-180.485	126.999	81.2721	-172.87	149.508	53.9702	-161.776	138.195	25.0476	-212.377	126.308	67.0714	-208.095	146.33	35.9397	-182.536	123.584	6.23193	-213.977	109.149	37.4306	-194.374	99.1682	15.9879	-185.648	66.5421	33.2368	-222.663	79.1372	30.3157	-195.607	66.4287	18.6481	-187.463	50.0374	50.4196	-229.236	70.5332	87.5408	-229.655	41.4102	110.037	-201.327	65.5685	114.709	
290	2.41667	-156.515	47.3467	92.7859	-138.43	56.8523	59.0021	-127.64	70.3775	27.1953	-139.152	79.0014	2.30465	-179.488	122.525	73.4066	-172.351	144.884	44.5133	-160.715	134.02	17.7854	-211.789	125.839	57.5693	-206.372	140.199	25.1781	-181.788	121.747	-0.376834	-213.448	102.941	30.2741	-195.768	91.0515	8.26725	-184.693	61.1255	28.8857	-224.556	73.7696	25.6471	-194.749	55.4869	13.6687	-188.92	42.5496	41.1347	-226.68	65.7725	87.6754	-228.712	39.6697	105.949	-199.053	65.1249	106.299	
291	2.425	-155.612	46.5009	87.1957	-142.877	51.3412	53.1375	-129.377	62.9132	22.3229	-135.556	68.9827	-1.87106	-176.996	123.312	63.5416	-173.283	139.197	35.5133	-161.667	126.072	7.54212	-209.723	119.693	52.1632	-207.32	134.387	18.1953	-183.046	115.829	-7.73085	-216.049	95.5007	24.4008	-200.183	84.8337	0.813671	-185.084	55.654	22.7835	-222.715	67.6063	13.9453	-196.422	53.0158	7.28775	-188.183	37.0841	33.4794	-229.752	61.5873	76.6888	-230.484	35.1116	100.262	-197.492	61.4888	104.622	
292	2.43333	-155.456	44.0566	81.0563	-142.316	47.2983	48.1884	-129	56.3474	18.1667	-138.793	65.3746	-9.3599	-181.164	116.774	52.7808	-172.62	133.515	28.759	-161.107	119.308	-1.10042	-212.442	113.063	40.7053	-202.995	129.218	6.54206	-184.774	109.65	-16.8602	-214.493	92.0601	16.6658	-195.838	76.3882	-6.53253	-187.045	51.6047	13.1479	-226.257	61.4231	11.822	-198.243	47.1384	-1.54981	-187.123	35.1261	25.9544	-229.7	56.6788	72.0588	-224.421	35.7477	94.0626	-197.194	59.0537	98.0524	
293	2.44167	-156.114	36.4705	76.842	-137.724	39.4388	43.8973	-128.474	52.0424	7.29551	-135.152	55.2337	-15.3368	-177.446	109.225	45.3004	-169.923	128.226	15.9038	-157.414	114.834	-10.4124	-208.265	112.875	31.9263	-204.7	121.802	-2.61355	-186.593	98.4996	-27.7915	-214.384	85.4817	11.5406	-197.986	75.9207	-14.0438	-186.362	45.3153	4.45973	-221.739	59.2192	6.5606	-196.184	43.6433	-7.13385	-186.523	30.1309	20.4009	-228.584	56.6514	63.0696	-225.995	35.1754	88.3426	-193.785	57.5874	88.4183	
294	2.45	-151.696	34.7991	66.8229	-137.748	36.9152	34.371	-127.834	42.2684	3.16621	-134.039	46.5065	-23.4143	-174.297	103.79	34.7618	-169.369	121.566	4.50127	-156.194	103.619	-24.9717	-208.88	103.81	20.0535	-205.408	115.513	-12.3399	-182.822	90.2469	-40.6525	-215.145	77.7201	0.0458314	-198.484	63.0789	-24.6618	-186.617	37.6092	-3.58712	-223.037	51.3799	-7.20534	-197.235	31.7976	-15.6613	-188.413	21.0137	15.116	-224.946	53.5237	55.6161	-226.932	28.0362	84.382	-193.14	51.5495	82.0555	
295	2.45833	-153.718	27.3822	60.1936	-132.966	29.1436	25.5649	-127.445	33.868	-5.80246	-132.207	40.341	-35.9621	-170.645	101.426	20.0946	-167.077	112.923	-9.669	-156.442	97.2695	-36.1294	-202.876	96.606	12.1298	-204.638	107.368	-23.6275	-185.693	81.4637	-51.7544	-211.431	71.3293	-8.73889	-197.355	52.0559	-33.5921	-182.912	33.0626	-9.0779	-223.802	42.6037	-12.1385	-196.968	24.5138	-23.9292	-185.956	13.5992	6.21411	-220.281	49.3983	50.4064	-222.6	28.5668	74.1875	-189.673	48.2	71.8153	
296	2.46667	-150.693	22.3317	52.7191	-134.787	21.3236	18.8943	-124.517	28.2566	-18.3805	-132.706	30.4038	-44.0583	-169.248	93.5098	8.52554	-162.916	106.472	-17.6994	-156.785	87.3947	-48.7625	-200.546	92.455	-0.653878	-199.703	99.5012	-36.6794	-188.826	73.1728	-61.6931	-211.189	64.1897	-17.9054	-198.882	44.9462	-42.6418	-185.732	22.6747	-18.4254	-221.8	36.1852	-21.5991	-196.476	18.1129	-30.8543	-184.355	7.34713	-6.36555	-221.394	47.0619	39.8298	-217.302	24.3249	68.6003	-186.943	44.7359	64.9317	
297	2.475	-146.535	20.491	41.5097	-134.33	14.953	11.4787	-122.87	17.0647	-23.0003	-132.011	18.9392	-50.6477	-165.731	86.7204	-0.953117	-159.354	97.6647	-31.2444	-155.75	77.7198	-60.4563	-202.88	82.6154	-9.52176	-198.532	90.7186	-47.0564	-184.832	62.4791	-72.9322	-210.431	56.4254	-29.122	-200.552	36.0086	-50.8237	-181.812	15.4813	-23.5751	-223.731	27.9792	-25.8925	-199.495	10.1739	-38.9281	-185.504	-2.1256	-6.9665	-218.457	37.8858	33.6436	-220.347	22.6956	61.434	-185.332	42.3702	51.8184	
298	2.48333	-145.961	14.0144	35.3297	-128.635	7.00493	5.35502	-122.769	8.63355	-30.6839	-128.434	8.12677	-55.4683	-166.538	79.1723	-12.0382	-161.233	87.5902	-42.5202	-153.188	67.8225	-70.8711	-196.336	78.4685	-21.0081	-196.889	82.5157	-56.25	-186.284	49.9156	-83.1968	-206.948	48.8237	-37.6868	-193.676	26.5153	-56.664	-184.074	6.21373	-32.3695	-218.69	21.9093	-33.6076	-197.778	-3.31986	-41.9204	-187.322	-12.5547	-15.7914	-213.596	35.3547	27.1613	-214.793	19.2716	56.6959	-182.602	37.9235	46.597	
299	2.49167	-143.771	9.35378	29.0828	-130.934	0.570096	1.39737	-120.681	0.854114	-36.6957	-127.284	1.15969	-65.0037	-165.172	71.4707	-21.795	-160.416	79.9033	-50.6419	-154.021	61.7951	-76.0349	-199.377	70.0284	-30.4704	-197.454	73.207	-64.0879	-184.852	46.8345	-89.2334	-210.466	38.7595	-41.1619	-197.824	16.5793	-62.7236	-182.045	-0.526442	-38.1122	-221.925	11.665	-36.82	-198.729	-7.68065	-47.6246	-183.714	-16.5565	-14.7018	-214.752	30.1816	21.6122	-215.501	15.6567	50.4847	-181.57	33.1542	39.2736	
300	2.5	-143.817	1.83766	28.2348	-128.309	-3.10276	-7.36275	-121.204	-6.21126	-39.1763	-125.917	-8.646	-68.3779	-165.338	65.1112	-28.7797	-154.1	72.9748	-57.4252	-153.377	52.4505	-85.1572	-198.036	62.0269	-36.6758	-195.576	64.8086	-72.7228	-183.127	38.5318	-95.9868	-208.667	32.8649	-50.9946	-196.187	13.1511	-68.9851	-182.868	-10.0334	-38.8178	-218.684	3.6186	-45.7618	-198.072	-19.6316	-50.2425	-185.889	-23.8075	-21.5161	-212.224	24.2966	15.2505	-211.279	14.6948	44.4274	-182.66	29.3256	33.3144	
301	2.50833	-144.648	0.0345364	20.2881	-126.133	-7.72691	-11.7966	-115.175	-14.3114	-42.2702	-120.856	-16.757	-68.4098	-163.608	56.9644	-33.4445	-153.921	67.0624	-63.4097	-146.288	48.02	-91.2945	-195.188	54.77	-40.8565	-194.148	56.555	-82.4268	-185.749	30.2982	-104.327	-204.85	26.788	-53.86	-196.681	2.60492	-74.7916	-178.761	-14.675	-43.4619	-218.213	-3.04436	-49.7817	-195.571	-27.6126	-51.4092	-183.986	-28.9964	-22.144	-214.916	19.5505	9.0042	-213.261	10.638	39.722	-178.891	28.3573	28.422	
302	2.51667	-141.294	-2.97928	18.0759	-123.117	-12.8085	-13.5798	-113.758	-19.4803	-41.3479	-116.168	-23.1171	-74.1512	-158.018	52.5527	-37.6017	-151.574	62.9145	-68.0204	-144.165	45.1832	-100.317	-194.753	50.8155	-49.9744	-192.417	52.1034	-87.9542	-182.903	29.7579	-112.051	-204.744	20.8733	-63.0561	-197.117	-3.79237	-79.2726	-180.001	-22.1726	-47.4367	-215.279	-9.07551	-52.8196	-192.343	-32.5961	-53.6725	-183.092	-34.3939	-22.7952	-213.374	17.347	4.6595	-214.718	6.47854	34.6826	-177.413	23.0019	25.0478	
303	2.525	-142.818	-7.43215	15.8633	-121.685	-17.7748	-13.3962	-112.263	-26.195	-42.1522	-108.07	-33.4212	-70.4697	-161.008	44.9797	-45.2669	-152.764	55.1185	-77.3356	-145.018	45.7308	-105.287	-192.624	46.6189	-57.1783	-193.809	45.5922	-93.7072	-182.68	24.461	-121.222	-208.1	12.7466	-63.5794	-194.64	-7.81229	-83.4843	-181.43	-28.6162	-54.6475	-215.478	-13.7582	-54.4024	-194.411	-43.0238	-54.8137	-183.543	-41.5663	-27.8921	-212.264	15.2235	-3.16785	-214.693	7.8426	29.2818	-178.194	20.373	19.159	
304	2.53333	-142.621	-9.53864	11.6354	-119.99	-23.7815	-13.0852	-109.741	-31.9193	-43.3441	-105.519	-40.5272	-69.2422	-158.248	36.7081	-52.8352	-151.1	47.1303	-83.1054	-146.758	43.609	-112.39	-193.444	36.4201	-60.7352	-195.51	40.8014	-94.1977	-191.028	21.6697	-128.85	-206.085	7.16024	-70.8083	-194.438	-17.4168	-87.0989	-184.036	-36.8619	-62.4984	-217.933	-21.6854	-57.8633	-197.251	-46.6724	-58.7176	-183.563	-48.6981	-30.1345	-209.332	12.9665	-2.72093	-207.501	6.44153	26.1756	-173.169	19.8305	12.7877	
305	2.54167	-140.529	-11.0454	7.69779	-123.345	-27.7655	-13.1956	-103.763	-39.4903	-42.1925	-96.3519	-51.398	-65.1675	-153.743	29.854	-60.9953	-151.437	38.701	-86.5307	-146.177	40.4258	-119.311	-192.308	28.0182	-63.8181	-193.511	33.3996	-99.3928	-191.313	18.8814	-134.875	-208.883	0.862797	-71.3124	-204.349	-23.2387	-90.9895	-185.38	-44.5746	-66.1928	-223.611	-25.4759	-55.9091	-203.636	-54.5316	-62.583	-185.887	-56.2108	-32.9092	-209.375	8.14847	-7.78727	-210.538	8.13103	21.584	-174.154	16.5068	9.08445	
306	2.55	-139.743	-16.2415	8.86637	-122.188	-34.0334	-15.1191	-102.141	-47.7922	-42.7325	-90.7708	-60.9995	-58.0278	-157.084	18.7347	-66.2603	-152.022	27.0276	-94.8551	-148.44	30.9989	-121.148	-190.359	20.5327	-69.7239	-194.037	23.6076	-104.273	-194.345	12.2959	-140.22	-210.333	-5.99809	-74.7222	-202.248	-33.1722	-91.9831	-191.575	-54.7768	-69.3281	-221.67	-28.5334	-57.2318	-207.005	-59.9571	-63.2449	-191.919	-66.7194	-36.9917	-206.754	6.16287	-12.3115	-206.648	6.92592	19.7332	-174.494	13.3868	3.23977	
307	2.55833	-134.123	-19.0346	7.68993	-115.552	-39.5911	-10.7939	-101.056	-55.1841	-37.0904	-88.4119	-69.2432	-55.2251	-153.817	10.3802	-68.3433	-151.491	15.8577	-96.3329	-149.983	19.73	-122.059	-189.234	11.5702	-74.0997	-193.467	14.1071	-111.022	-195.468	5.44677	-141.02	-205.904	-11.5774	-76.2163	-202.559	-38.6008	-92.6878	-194.465	-62.9126	-70.2129	-224.483	-35.6334	-58.0191	-211.841	-65.1292	-64.2524	-192.431	-74.6325	-36.7134	-206.118	1.8483	-12.9161	-202.085	6.25899	16.1836	-167.483	10.8242	0.352583	
308	2.56667	-135.324	-23.9671	4.29466	-115.681	-44.1092	-8.96222	-95.4318	-62.4054	-31.7554	-85.1711	-77.4712	-45.3062	-150.463	0.483606	-70.3669	-144.548	6.05547	-98.8472	-145.787	7.80245	-124.718	-185.119	3.90841	-75.1915	-187.905	3.34254	-109.874	-194.662	-3.38629	-140.174	-207.05	-20.5657	-76.6205	-205.433	-47.4952	-91.8784	-190.638	-69.5155	-69.6396	-225.341	-39.8004	-53.941	-212.8	-73.9874	-59.553	-194.607	-82.9035	-38.1808	-200.789	-0.589603	-15.002	-202.202	3.21433	15.7196	-168.686	5.10587	-3.42852	
309	2.575	-133.116	-28.7198	3.93793	-118.087	-50.0425	-10.3124	-95.6905	-69.741	-30.7847	-80.6692	-85.6964	-44.3733	-149.893	-10.0137	-70.4193	-147.853	-7.90352	-100.084	-143.872	-5.75131	-126.244	-180.431	-6.7107	-77.9343	-183.635	-9.12107	-109.607	-193.283	-17.9162	-141.19	-206.714	-28.7745	-72.7899	-201.726	-57.5351	-89.2346	-191.137	-81.3674	-61.3555	-220.757	-47.9894	-55.485	-212.002	-79.8819	-57.2636	-190.929	-87.152	-32.5188	-203.661	-4.88849	-16.8795	-199.133	0.46601	17.0079	-166.697	1.33104	-7.46681	
310	2.58333	-132.247	-31.1161	4.81221	-113.075	-53.8269	-8.15841	-98.0501	-73.835	-25.4517	-80.9447	-91.2502	-35.3093	-147.675	-17.5515	-71.6244	-147.239	-17.709	-100.005	-146.041	-17.9785	-126.967	-180.635	-14.9737	-78.8547	-186.966	-18.7377	-111.077	-191.466	-27.6198	-143.248	-205.543	-35.3855	-72.2579	-203.064	-64.7015	-87.9119	-194.335	-89.6426	-60.0004	-221.7	-54.2778	-53.0311	-211.313	-86.9835	-51.3697	-191.309	-90.9271	-29.5374	-203.342	-9.33881	-17.147	-194.824	-0.67385	12.8342	-162.913	-3.64502	-3.67484	
311	2.59167	-132.959	-33.9393	8.79338	-115.355	-58.4132	-7.43211	-92.0375	-79.0677	-21.244	-82.2213	-96.2095	-33.6151	-151.372	-23.6024	-73.4957	-145.639	-25.0484	-99.4529	-140.119	-25.929	-125.635	-178.317	-20.9735	-77.9519	-187.476	-26.7108	-110.798	-190.201	-37.0883	-143.332	-203.366	-40.7548	-71.8858	-205.397	-71.1169	-86.1426	-194.008	-95.3978	-61.8703	-218.843	-59.2448	-52.5246	-209.232	-90.3468	-50.6856	-192.994	-96.567	-23.8377	-201.808	-14.1752	-17.7028	-193.846	-3.46055	15.4665	-160.571	-6.05052	-9.75665	
